G75*
G70*
%OFA0B0*%
%FSLAX24Y24*%
%IPPOS*%
%LPD*%
%AMOC8*
5,1,8,0,0,1.08239X$1,22.5*
%
%ADD10C,0.0000*%
%ADD11C,0.0600*%
%ADD12C,0.0780*%
%ADD13R,0.0595X0.0595*%
%ADD14C,0.0595*%
%ADD15C,0.0820*%
%ADD16R,0.1580X0.1580*%
%ADD17C,0.0680*%
%ADD18C,0.1380*%
%ADD19C,0.0730*%
%ADD20C,0.0480*%
D10*
X000100Y000100D02*
X000100Y031596D01*
X039470Y031596D01*
X039470Y000100D01*
X000100Y000100D01*
X034950Y023000D02*
X034952Y023050D01*
X034958Y023100D01*
X034968Y023150D01*
X034981Y023198D01*
X034998Y023246D01*
X035019Y023292D01*
X035043Y023336D01*
X035071Y023378D01*
X035102Y023418D01*
X035136Y023455D01*
X035173Y023490D01*
X035212Y023521D01*
X035253Y023550D01*
X035297Y023575D01*
X035343Y023597D01*
X035390Y023615D01*
X035438Y023629D01*
X035487Y023640D01*
X035537Y023647D01*
X035587Y023650D01*
X035638Y023649D01*
X035688Y023644D01*
X035738Y023635D01*
X035786Y023623D01*
X035834Y023606D01*
X035880Y023586D01*
X035925Y023563D01*
X035968Y023536D01*
X036008Y023506D01*
X036046Y023473D01*
X036081Y023437D01*
X036114Y023398D01*
X036143Y023357D01*
X036169Y023314D01*
X036192Y023269D01*
X036211Y023222D01*
X036226Y023174D01*
X036238Y023125D01*
X036246Y023075D01*
X036250Y023025D01*
X036250Y022975D01*
X036246Y022925D01*
X036238Y022875D01*
X036226Y022826D01*
X036211Y022778D01*
X036192Y022731D01*
X036169Y022686D01*
X036143Y022643D01*
X036114Y022602D01*
X036081Y022563D01*
X036046Y022527D01*
X036008Y022494D01*
X035968Y022464D01*
X035925Y022437D01*
X035880Y022414D01*
X035834Y022394D01*
X035786Y022377D01*
X035738Y022365D01*
X035688Y022356D01*
X035638Y022351D01*
X035587Y022350D01*
X035537Y022353D01*
X035487Y022360D01*
X035438Y022371D01*
X035390Y022385D01*
X035343Y022403D01*
X035297Y022425D01*
X035253Y022450D01*
X035212Y022479D01*
X035173Y022510D01*
X035136Y022545D01*
X035102Y022582D01*
X035071Y022622D01*
X035043Y022664D01*
X035019Y022708D01*
X034998Y022754D01*
X034981Y022802D01*
X034968Y022850D01*
X034958Y022900D01*
X034952Y022950D01*
X034950Y023000D01*
D11*
X033647Y025840D02*
X033647Y026360D01*
X032647Y026360D02*
X032647Y025840D01*
X031647Y025840D02*
X031647Y026360D01*
X030647Y026360D02*
X030647Y025840D01*
X029647Y025840D02*
X029647Y026360D01*
X028647Y026360D02*
X028647Y025840D01*
X027647Y025840D02*
X027647Y026360D01*
X026647Y026360D02*
X026647Y025840D01*
X025647Y025840D02*
X025647Y026360D01*
X024647Y026360D02*
X024647Y025840D01*
X023647Y025840D02*
X023647Y026360D01*
X022647Y026360D02*
X022647Y025840D01*
X021647Y025840D02*
X021647Y026360D01*
X020647Y026360D02*
X020647Y025840D01*
X020647Y028840D02*
X020647Y029360D01*
X021647Y029360D02*
X021647Y028840D01*
X022647Y028840D02*
X022647Y029360D01*
X023647Y029360D02*
X023647Y028840D01*
X024647Y028840D02*
X024647Y029360D01*
X025647Y029360D02*
X025647Y028840D01*
X026647Y028840D02*
X026647Y029360D01*
X027647Y029360D02*
X027647Y028840D01*
X028647Y028840D02*
X028647Y029360D01*
X029647Y029360D02*
X029647Y028840D01*
X030647Y028840D02*
X030647Y029360D01*
X031647Y029360D02*
X031647Y028840D01*
X032647Y028840D02*
X032647Y029360D01*
X033647Y029360D02*
X033647Y028840D01*
X030616Y022376D02*
X030616Y021856D01*
X029616Y021856D02*
X029616Y022376D01*
X028616Y022376D02*
X028616Y021856D01*
X027616Y021856D02*
X027616Y022376D01*
X026616Y022376D02*
X026616Y021856D01*
X025616Y021856D02*
X025616Y022376D01*
X024616Y022376D02*
X024616Y021856D01*
X023616Y021856D02*
X023616Y022376D01*
X023616Y019376D02*
X023616Y018856D01*
X024616Y018856D02*
X024616Y019376D01*
X025616Y019376D02*
X025616Y018856D01*
X026616Y018856D02*
X026616Y019376D01*
X027616Y019376D02*
X027616Y018856D01*
X028616Y018856D02*
X028616Y019376D01*
X029616Y019376D02*
X029616Y018856D01*
X030616Y018856D02*
X030616Y019376D01*
X017553Y016470D02*
X017553Y015950D01*
X016553Y015950D02*
X016553Y016470D01*
X015553Y016470D02*
X015553Y015950D01*
X014553Y015950D02*
X014553Y016470D01*
X013553Y016470D02*
X013553Y015950D01*
X012553Y015950D02*
X012553Y016470D01*
X011553Y016470D02*
X011553Y015950D01*
X010553Y015950D02*
X010553Y016470D01*
X009553Y016470D02*
X009553Y015950D01*
X008553Y015950D02*
X008553Y016470D01*
X008553Y013470D02*
X008553Y012950D01*
X009553Y012950D02*
X009553Y013470D01*
X010553Y013470D02*
X010553Y012950D01*
X011553Y012950D02*
X011553Y013470D01*
X012553Y013470D02*
X012553Y012950D01*
X013553Y012950D02*
X013553Y013470D01*
X014553Y013470D02*
X014553Y012950D01*
X015553Y012950D02*
X015553Y013470D01*
X016553Y013470D02*
X016553Y012950D01*
X017553Y012950D02*
X017553Y013470D01*
D12*
X018021Y009950D02*
X018021Y009250D01*
X017021Y009250D02*
X017021Y009950D01*
X016021Y009950D02*
X016021Y009250D01*
X015021Y009250D02*
X015021Y009950D01*
X014021Y009950D02*
X014021Y009250D01*
X013021Y009250D02*
X013021Y009950D01*
X012021Y009950D02*
X012021Y009250D01*
X011021Y009250D02*
X011021Y009950D01*
X011021Y005950D02*
X011021Y005250D01*
X012021Y005250D02*
X012021Y005950D01*
X013021Y005950D02*
X013021Y005250D01*
X014021Y005250D02*
X014021Y005950D01*
X015021Y005950D02*
X015021Y005250D01*
X016021Y005250D02*
X016021Y005950D01*
X017021Y005950D02*
X017021Y005250D01*
X018021Y005250D02*
X018021Y005950D01*
X028000Y006600D02*
X028700Y006600D01*
X028700Y008600D02*
X028000Y008600D01*
X033700Y008600D02*
X034400Y008600D01*
X034400Y007600D02*
X033700Y007600D01*
X033700Y006600D02*
X034400Y006600D01*
D13*
X022100Y023313D03*
X019600Y023313D03*
D14*
X019600Y022313D03*
X019600Y021313D03*
X019600Y020313D03*
X019600Y019313D03*
X019600Y018313D03*
X022100Y018313D03*
X022100Y019313D03*
X022100Y020313D03*
X022100Y021313D03*
X022100Y022313D03*
D15*
X023069Y016757D03*
X020069Y016757D03*
X014147Y019506D03*
X012631Y019506D03*
X011116Y019506D03*
X009600Y019506D03*
X008084Y019506D03*
X006569Y019506D03*
X005053Y019506D03*
X005053Y022506D03*
X006569Y022506D03*
X008084Y022506D03*
X009600Y022506D03*
X011116Y022506D03*
X012631Y022506D03*
X014147Y022506D03*
X004368Y008600D03*
X004368Y007600D03*
X004368Y006600D03*
X036517Y026659D03*
X036517Y027659D03*
X036517Y028659D03*
D16*
X031100Y010200D03*
X031100Y005000D03*
D17*
X034600Y016800D02*
X034600Y017400D01*
X035600Y017400D02*
X035600Y016800D01*
X036600Y016800D02*
X036600Y017400D01*
X018317Y026572D02*
X018317Y027172D01*
X017317Y027172D02*
X017317Y026572D01*
D18*
X035600Y023000D03*
D19*
X030600Y017100D03*
X029600Y017100D03*
X026600Y017100D03*
X025600Y017100D03*
D20*
X028100Y015100D03*
X024600Y014100D03*
X021100Y014600D03*
X020600Y015600D03*
X020600Y012100D03*
X019600Y011600D03*
X020100Y010600D03*
X014600Y015100D03*
X015600Y018100D03*
X015600Y018600D03*
X013600Y020100D03*
X011100Y025100D03*
X014600Y027600D03*
X010600Y028600D03*
X020600Y025100D03*
X022100Y024600D03*
X024600Y027600D03*
X027600Y028100D03*
X028100Y027100D03*
X026100Y030600D03*
X029600Y020600D03*
X013600Y010600D03*
X011600Y011100D03*
M02*
