%
M48
M72
T01C0.0240
T02C0.0276
T03C0.0315
T04C0.0320
T05C0.0354
T06C0.0394
T07C0.0400
T08C0.0866
T09C0.1300
%
T01
X13600Y10600
X11600Y11100
X14600Y15100
X15600Y18100
X15600Y18600
X13600Y20100
X11100Y25100
X14600Y27600
X10600Y28600
X20600Y25100
X22100Y24600
X24600Y27600
X27600Y28100
X28100Y27100
X26100Y30600
X29600Y20600
X28100Y15100
X24600Y14100
X21100Y14600
X20600Y15600
X20600Y12100
X19600Y11600
X20100Y10600
T02
X25600Y17100
X26600Y17100
X29600Y17100
X30600Y17100
T03
X22100Y18313
X22100Y19313
X22100Y20313
X22100Y21313
X22100Y22313
X22100Y23313
X19600Y23313
X19600Y22313
X19600Y21313
X19600Y20313
X19600Y19313
X19600Y18313
T04
X17553Y16210
X16553Y16210
X15553Y16210
X14553Y16210
X13553Y16210
X12553Y16210
X11553Y16210
X10553Y16210
X9553Y16210
X8553Y16210
X8553Y13210
X9553Y13210
X10553Y13210
X11553Y13210
X12553Y13210
X13553Y13210
X14553Y13210
X15553Y13210
X16553Y13210
X17553Y13210
X23616Y19116
X24616Y19116
X25616Y19116
X26616Y19116
X27616Y19116
X28616Y19116
X29616Y19116
X30616Y19116
X30616Y22116
X29616Y22116
X28616Y22116
X27616Y22116
X26616Y22116
X25616Y22116
X24616Y22116
X23616Y22116
X23647Y26100
X24647Y26100
X25647Y26100
X26647Y26100
X27647Y26100
X28647Y26100
X29647Y26100
X30647Y26100
X31647Y26100
X32647Y26100
X33647Y26100
X33647Y29100
X32647Y29100
X31647Y29100
X30647Y29100
X29647Y29100
X28647Y29100
X27647Y29100
X26647Y29100
X25647Y29100
X24647Y29100
X23647Y29100
X22647Y29100
X21647Y29100
X20647Y29100
X20647Y26100
X21647Y26100
X22647Y26100
T05
X14147Y22506
X12631Y22506
X11116Y22506
X9600Y22506
X8084Y22506
X6569Y22506
X5053Y22506
X5053Y19506
X6569Y19506
X8084Y19506
X9600Y19506
X11116Y19506
X12631Y19506
X14147Y19506
X20069Y16757
X23069Y16757
T06
X28350Y8600
X28350Y6600
X34050Y6600
X34050Y7600
X34050Y8600
T07
X4368Y6600
X4368Y7600
X4368Y8600
X11021Y9600
X12021Y9600
X13021Y9600
X14021Y9600
X15021Y9600
X16021Y9600
X17021Y9600
X18021Y9600
X18021Y5600
X17021Y5600
X16021Y5600
X15021Y5600
X14021Y5600
X13021Y5600
X12021Y5600
X11021Y5600
X34600Y17100
X35600Y17100
X36600Y17100
X36517Y26659
X36517Y27659
X36517Y28659
X18317Y26872
X17317Y26872
T08
X31100Y10200
X31100Y5000
T09
X35600Y23000
M30
