G75*
G70*
%OFA0B0*%
%FSLAX24Y24*%
%IPPOS*%
%LPD*%
%AMOC8*
5,1,8,0,0,1.08239X$1,22.5*
%
%ADD10C,0.0000*%
%ADD11C,0.0110*%
%ADD12C,0.0080*%
%ADD13C,0.0040*%
%ADD14C,0.0050*%
%ADD15C,0.0010*%
%ADD16C,0.0060*%
%ADD17C,0.0020*%
%ADD18C,0.0070*%
%ADD19R,0.0500X0.0350*%
%ADD20C,0.0120*%
D10*
X000100Y000100D02*
X000100Y031596D01*
X039470Y031596D01*
X039470Y000100D01*
X000100Y000100D01*
X034950Y023000D02*
X034952Y023050D01*
X034958Y023100D01*
X034968Y023150D01*
X034981Y023198D01*
X034998Y023246D01*
X035019Y023292D01*
X035043Y023336D01*
X035071Y023378D01*
X035102Y023418D01*
X035136Y023455D01*
X035173Y023490D01*
X035212Y023521D01*
X035253Y023550D01*
X035297Y023575D01*
X035343Y023597D01*
X035390Y023615D01*
X035438Y023629D01*
X035487Y023640D01*
X035537Y023647D01*
X035587Y023650D01*
X035638Y023649D01*
X035688Y023644D01*
X035738Y023635D01*
X035786Y023623D01*
X035834Y023606D01*
X035880Y023586D01*
X035925Y023563D01*
X035968Y023536D01*
X036008Y023506D01*
X036046Y023473D01*
X036081Y023437D01*
X036114Y023398D01*
X036143Y023357D01*
X036169Y023314D01*
X036192Y023269D01*
X036211Y023222D01*
X036226Y023174D01*
X036238Y023125D01*
X036246Y023075D01*
X036250Y023025D01*
X036250Y022975D01*
X036246Y022925D01*
X036238Y022875D01*
X036226Y022826D01*
X036211Y022778D01*
X036192Y022731D01*
X036169Y022686D01*
X036143Y022643D01*
X036114Y022602D01*
X036081Y022563D01*
X036046Y022527D01*
X036008Y022494D01*
X035968Y022464D01*
X035925Y022437D01*
X035880Y022414D01*
X035834Y022394D01*
X035786Y022377D01*
X035738Y022365D01*
X035688Y022356D01*
X035638Y022351D01*
X035587Y022350D01*
X035537Y022353D01*
X035487Y022360D01*
X035438Y022371D01*
X035390Y022385D01*
X035343Y022403D01*
X035297Y022425D01*
X035253Y022450D01*
X035212Y022479D01*
X035173Y022510D01*
X035136Y022545D01*
X035102Y022582D01*
X035071Y022622D01*
X035043Y022664D01*
X035019Y022708D01*
X034998Y022754D01*
X034981Y022802D01*
X034968Y022850D01*
X034958Y022900D01*
X034952Y022950D01*
X034950Y023000D01*
D11*
X037655Y025746D02*
X037852Y025746D01*
X037950Y025844D01*
X037950Y026238D01*
X037852Y026336D01*
X037655Y026336D01*
X037557Y026238D01*
X037557Y025844D01*
X037655Y025746D01*
X038201Y025746D02*
X038201Y026336D01*
X038595Y026336D01*
X038846Y026336D02*
X039239Y026336D01*
X039043Y026041D02*
X038846Y026041D01*
X038846Y025746D02*
X038846Y026336D01*
X038398Y026041D02*
X038201Y026041D01*
X038201Y029683D02*
X038201Y030273D01*
X038595Y029683D01*
X038595Y030273D01*
X037950Y030175D02*
X037852Y030273D01*
X037655Y030273D01*
X037557Y030175D01*
X037557Y029781D01*
X037655Y029683D01*
X037852Y029683D01*
X037950Y029781D01*
X037950Y030175D01*
X021093Y024564D02*
X020995Y024564D01*
X020798Y024368D01*
X020798Y024564D02*
X020798Y024171D01*
X020547Y024368D02*
X020547Y024466D01*
X020449Y024564D01*
X020252Y024564D01*
X020153Y024466D01*
X020153Y024269D01*
X020252Y024171D01*
X020449Y024171D01*
X020547Y024368D02*
X020153Y024368D01*
X019903Y024466D02*
X019903Y024171D01*
X019903Y024466D02*
X019804Y024564D01*
X019509Y024564D01*
X019509Y024171D01*
X019258Y024171D02*
X019258Y024466D01*
X019160Y024564D01*
X018864Y024564D01*
X018864Y024171D01*
X018632Y024171D02*
X018435Y024171D01*
X018533Y024171D02*
X018533Y024564D01*
X018435Y024564D01*
X018533Y024761D02*
X018533Y024860D01*
X018184Y024466D02*
X018184Y024269D01*
X018085Y024171D01*
X017790Y024171D01*
X017790Y023974D02*
X017790Y024564D01*
X018085Y024564D01*
X018184Y024466D01*
X017539Y024564D02*
X017244Y024564D01*
X017146Y024466D01*
X017244Y024368D01*
X017441Y024368D01*
X017539Y024269D01*
X017441Y024171D01*
X017146Y024171D01*
X016913Y024171D02*
X016814Y024269D01*
X016814Y024663D01*
X016716Y024564D02*
X016913Y024564D01*
X016385Y024564D02*
X016385Y024171D01*
X016483Y024171D02*
X016286Y024171D01*
X016035Y024269D02*
X016035Y024466D01*
X015937Y024564D01*
X015642Y024564D01*
X015642Y024761D02*
X015642Y024171D01*
X015937Y024171D01*
X016035Y024269D01*
X016286Y024564D02*
X016385Y024564D01*
X016385Y024761D02*
X016385Y024860D01*
X015391Y024761D02*
X014997Y024171D01*
X014746Y024269D02*
X014648Y024171D01*
X014353Y024171D01*
X014353Y023974D02*
X014353Y024564D01*
X014648Y024564D01*
X014746Y024466D01*
X014746Y024269D01*
X014102Y024761D02*
X013708Y024171D01*
X013457Y024171D02*
X013457Y024466D01*
X013359Y024564D01*
X013260Y024466D01*
X013260Y024171D01*
X013063Y024171D02*
X013063Y024564D01*
X013162Y024564D01*
X013260Y024466D01*
X012813Y024466D02*
X012813Y024269D01*
X012714Y024171D01*
X012517Y024171D01*
X012419Y024269D01*
X012419Y024466D01*
X012517Y024564D01*
X012714Y024564D01*
X012813Y024466D01*
X012168Y024564D02*
X011873Y024564D01*
X011774Y024466D01*
X011774Y024269D01*
X011873Y024171D01*
X012168Y024171D01*
X011550Y024171D02*
X011452Y024171D01*
X011452Y024269D01*
X011550Y024269D01*
X011550Y024171D01*
X011201Y024368D02*
X011201Y024466D01*
X011103Y024564D01*
X010906Y024564D01*
X010807Y024466D01*
X010807Y024269D01*
X010906Y024171D01*
X011103Y024171D01*
X011201Y024368D02*
X010807Y024368D01*
X010575Y024171D02*
X010378Y024171D01*
X010476Y024171D02*
X010476Y024761D01*
X010378Y024761D01*
X010127Y024564D02*
X009832Y024564D01*
X009733Y024466D01*
X009733Y024269D01*
X009832Y024171D01*
X010127Y024171D01*
X010127Y024072D02*
X010127Y024564D01*
X009482Y024466D02*
X009482Y024269D01*
X009384Y024171D01*
X009187Y024171D01*
X009089Y024269D01*
X009089Y024466D01*
X009187Y024564D01*
X009384Y024564D01*
X009482Y024466D01*
X008838Y024466D02*
X008838Y024269D01*
X008739Y024171D01*
X008543Y024171D01*
X008444Y024269D01*
X008444Y024466D01*
X008543Y024564D01*
X008739Y024564D01*
X008838Y024466D01*
X008193Y024564D02*
X007898Y024564D01*
X007800Y024466D01*
X007800Y024269D01*
X007898Y024171D01*
X008193Y024171D01*
X008193Y024072D02*
X008095Y023974D01*
X007996Y023974D01*
X008193Y024072D02*
X008193Y024564D01*
X007576Y024269D02*
X007576Y024171D01*
X007477Y024171D01*
X007477Y024269D01*
X007576Y024269D01*
X007226Y024368D02*
X007226Y024466D01*
X007128Y024564D01*
X006931Y024564D01*
X006833Y024466D01*
X006833Y024269D01*
X006931Y024171D01*
X007128Y024171D01*
X007226Y024368D02*
X006833Y024368D01*
X006582Y024564D02*
X006287Y024564D01*
X006188Y024466D01*
X006188Y024269D01*
X006287Y024171D01*
X006582Y024171D01*
X006582Y024761D01*
X005937Y024466D02*
X005937Y024269D01*
X005839Y024171D01*
X005642Y024171D01*
X005544Y024269D01*
X005544Y024466D01*
X005642Y024564D01*
X005839Y024564D01*
X005937Y024466D01*
X005293Y024564D02*
X004998Y024564D01*
X004899Y024466D01*
X004899Y024269D01*
X004998Y024171D01*
X005293Y024171D01*
X004648Y024761D02*
X004255Y024171D01*
X004004Y024761D02*
X003610Y024171D01*
X003386Y024171D02*
X003288Y024171D01*
X003288Y024269D01*
X003386Y024269D01*
X003386Y024171D01*
X003386Y024466D02*
X003288Y024466D01*
X003288Y024564D01*
X003386Y024564D01*
X003386Y024466D01*
X003037Y024466D02*
X003037Y024269D01*
X002938Y024171D01*
X002643Y024171D01*
X002643Y023974D02*
X002643Y024564D01*
X002938Y024564D01*
X003037Y024466D01*
X002410Y024564D02*
X002214Y024564D01*
X002312Y024663D02*
X002312Y024269D01*
X002410Y024171D01*
X001981Y024171D02*
X001882Y024269D01*
X001882Y024663D01*
X001784Y024564D02*
X001981Y024564D01*
X001533Y024466D02*
X001533Y024171D01*
X001533Y024466D02*
X001435Y024564D01*
X001238Y024564D01*
X001139Y024466D01*
X001139Y024761D02*
X001139Y024171D01*
X001139Y026139D02*
X001435Y026139D01*
X001533Y026238D01*
X001533Y026336D01*
X001435Y026435D01*
X001139Y026435D01*
X001139Y026730D02*
X001139Y026139D01*
X001435Y026435D02*
X001533Y026533D01*
X001533Y026631D01*
X001435Y026730D01*
X001139Y026730D01*
X001784Y026533D02*
X001882Y026533D01*
X001882Y026139D01*
X001784Y026139D02*
X001981Y026139D01*
X002312Y026238D02*
X002410Y026139D01*
X002312Y026238D02*
X002312Y026631D01*
X002214Y026533D02*
X002410Y026533D01*
X002643Y026533D02*
X002643Y026631D01*
X002742Y026730D01*
X002938Y026730D01*
X003037Y026631D01*
X002938Y026435D02*
X002742Y026435D01*
X002643Y026533D01*
X002643Y026238D02*
X002742Y026139D01*
X002938Y026139D01*
X003037Y026238D01*
X003037Y026336D01*
X002938Y026435D01*
X003288Y026533D02*
X003583Y026533D01*
X003681Y026435D01*
X003681Y026238D01*
X003583Y026139D01*
X003288Y026139D01*
X003288Y025942D02*
X003288Y026533D01*
X003932Y026533D02*
X004031Y026533D01*
X004031Y026139D01*
X004129Y026139D02*
X003932Y026139D01*
X004362Y026139D02*
X004362Y026533D01*
X004657Y026533D01*
X004756Y026435D01*
X004756Y026139D01*
X005007Y026139D02*
X005007Y026533D01*
X005302Y026533D01*
X005400Y026435D01*
X005400Y026139D01*
X005651Y026238D02*
X005651Y026435D01*
X005750Y026533D01*
X005946Y026533D01*
X006045Y026435D01*
X006045Y026336D01*
X005651Y026336D01*
X005651Y026238D02*
X005750Y026139D01*
X005946Y026139D01*
X006296Y026139D02*
X006296Y026533D01*
X006492Y026533D02*
X006591Y026533D01*
X006492Y026533D02*
X006296Y026336D01*
X004031Y026730D02*
X004031Y026828D01*
X001882Y026828D02*
X001882Y026730D01*
X009930Y023974D02*
X010029Y023974D01*
X010127Y024072D01*
X016612Y028639D02*
X016710Y028541D01*
X016907Y028541D01*
X017005Y028639D01*
X017005Y028836D01*
X016907Y028934D01*
X016809Y028934D01*
X016612Y028836D01*
X016612Y029131D01*
X017005Y029131D01*
X017256Y028836D02*
X017650Y028836D01*
X017901Y028934D02*
X018098Y029131D01*
X018098Y028541D01*
X018294Y028541D02*
X017901Y028541D01*
X018545Y028541D02*
X018939Y028934D01*
X018939Y029033D01*
X018841Y029131D01*
X018644Y029131D01*
X018545Y029033D01*
X018545Y028541D02*
X018939Y028541D01*
X019190Y028738D02*
X019190Y029131D01*
X019190Y028738D02*
X019387Y028541D01*
X019584Y028738D01*
X019584Y029131D01*
X018738Y027812D02*
X018344Y027812D01*
X017360Y027694D02*
X016966Y027694D01*
X017163Y027498D02*
X017163Y027891D01*
X004835Y015805D02*
X004835Y015706D01*
X004835Y015509D02*
X004835Y015116D01*
X004737Y015116D02*
X004933Y015116D01*
X005166Y015116D02*
X005166Y015509D01*
X005462Y015509D01*
X005560Y015411D01*
X005560Y015116D01*
X005811Y015214D02*
X005909Y015312D01*
X006204Y015312D01*
X006204Y015411D02*
X006204Y015116D01*
X005909Y015116D01*
X005811Y015214D01*
X005909Y015509D02*
X006106Y015509D01*
X006204Y015411D01*
X006455Y015509D02*
X006455Y015116D01*
X006455Y015312D02*
X006652Y015509D01*
X006751Y015509D01*
X006992Y015509D02*
X006992Y015214D01*
X007091Y015116D01*
X007386Y015116D01*
X007386Y015017D02*
X007288Y014919D01*
X007189Y014919D01*
X007386Y015017D02*
X007386Y015509D01*
X004835Y015509D02*
X004737Y015509D01*
X004486Y015509D02*
X004387Y015411D01*
X004092Y015411D01*
X004092Y015116D02*
X004092Y015706D01*
X004387Y015706D01*
X004486Y015608D01*
X004486Y015509D01*
X004387Y015411D02*
X004486Y015312D01*
X004486Y015214D01*
X004387Y015116D01*
X004092Y015116D01*
X001435Y009604D02*
X001139Y009604D01*
X001139Y009013D01*
X001435Y009013D01*
X001533Y009112D01*
X001533Y009505D01*
X001435Y009604D01*
X001784Y009309D02*
X001882Y009407D01*
X002079Y009407D01*
X002177Y009309D01*
X002177Y009210D01*
X001784Y009210D01*
X001784Y009112D02*
X001784Y009309D01*
X001784Y009112D02*
X001882Y009013D01*
X002079Y009013D01*
X002428Y009112D02*
X002527Y009013D01*
X002822Y009013D01*
X002822Y009407D02*
X002527Y009407D01*
X002428Y009309D01*
X002428Y009112D01*
X001533Y006651D02*
X001533Y006061D01*
X001784Y006159D02*
X001784Y006356D01*
X001882Y006454D01*
X002079Y006454D01*
X002177Y006356D01*
X002177Y006257D01*
X001784Y006257D01*
X001784Y006159D02*
X001882Y006061D01*
X002079Y006061D01*
X002428Y006061D02*
X002822Y006454D01*
X002822Y006061D02*
X002428Y006454D01*
X001533Y006356D02*
X001139Y006356D01*
X001139Y006061D02*
X001139Y006651D01*
D12*
X003511Y005311D02*
X005224Y005311D01*
X005224Y009889D01*
X003511Y009889D01*
X003511Y005311D01*
X009053Y012710D02*
X008053Y013710D01*
X008053Y016710D01*
X018053Y016710D01*
X018053Y012710D01*
X009053Y012710D01*
X012803Y014960D02*
X013303Y014960D01*
X013053Y015585D02*
X013053Y013835D01*
X019100Y018313D02*
X019100Y022813D01*
X020100Y022813D01*
X020100Y023313D01*
X020098Y023357D01*
X020092Y023400D01*
X020083Y023442D01*
X020070Y023484D01*
X020053Y023524D01*
X020033Y023563D01*
X020010Y023600D01*
X019983Y023634D01*
X019954Y023667D01*
X019921Y023696D01*
X019887Y023723D01*
X019850Y023746D01*
X019811Y023766D01*
X019771Y023783D01*
X019729Y023796D01*
X019687Y023805D01*
X019644Y023811D01*
X019600Y023813D01*
X019556Y023811D01*
X019513Y023805D01*
X019471Y023796D01*
X019429Y023783D01*
X019389Y023766D01*
X019350Y023746D01*
X019313Y023723D01*
X019279Y023696D01*
X019246Y023667D01*
X019217Y023634D01*
X019190Y023600D01*
X019167Y023563D01*
X019147Y023524D01*
X019130Y023484D01*
X019117Y023442D01*
X019108Y023400D01*
X019102Y023357D01*
X019100Y023313D01*
X019100Y022813D01*
X020100Y022813D02*
X020100Y018313D01*
X020098Y018269D01*
X020092Y018226D01*
X020083Y018184D01*
X020070Y018142D01*
X020053Y018102D01*
X020033Y018063D01*
X020010Y018026D01*
X019983Y017992D01*
X019954Y017959D01*
X019921Y017930D01*
X019887Y017903D01*
X019850Y017880D01*
X019811Y017860D01*
X019771Y017843D01*
X019729Y017830D01*
X019687Y017821D01*
X019644Y017815D01*
X019600Y017813D01*
X019556Y017815D01*
X019513Y017821D01*
X019471Y017830D01*
X019429Y017843D01*
X019389Y017860D01*
X019350Y017880D01*
X019313Y017903D01*
X019279Y017930D01*
X019246Y017959D01*
X019217Y017992D01*
X019190Y018026D01*
X019167Y018063D01*
X019147Y018102D01*
X019130Y018142D01*
X019117Y018184D01*
X019108Y018226D01*
X019102Y018269D01*
X019100Y018313D01*
X020569Y017057D02*
X022569Y017057D01*
X022569Y016757D01*
X022669Y016757D01*
X022569Y016757D02*
X022569Y016457D01*
X020569Y016457D01*
X020569Y016757D01*
X020469Y016757D01*
X020569Y016757D02*
X020569Y017057D01*
X021600Y018313D02*
X021600Y022813D01*
X022600Y022813D01*
X022600Y023313D01*
X022598Y023357D01*
X022592Y023400D01*
X022583Y023442D01*
X022570Y023484D01*
X022553Y023524D01*
X022533Y023563D01*
X022510Y023600D01*
X022483Y023634D01*
X022454Y023667D01*
X022421Y023696D01*
X022387Y023723D01*
X022350Y023746D01*
X022311Y023766D01*
X022271Y023783D01*
X022229Y023796D01*
X022187Y023805D01*
X022144Y023811D01*
X022100Y023813D01*
X022056Y023811D01*
X022013Y023805D01*
X021971Y023796D01*
X021929Y023783D01*
X021889Y023766D01*
X021850Y023746D01*
X021813Y023723D01*
X021779Y023696D01*
X021746Y023667D01*
X021717Y023634D01*
X021690Y023600D01*
X021667Y023563D01*
X021647Y023524D01*
X021630Y023484D01*
X021617Y023442D01*
X021608Y023400D01*
X021602Y023357D01*
X021600Y023313D01*
X021600Y022813D01*
X022600Y022813D02*
X022600Y018313D01*
X022598Y018269D01*
X022592Y018226D01*
X022583Y018184D01*
X022570Y018142D01*
X022553Y018102D01*
X022533Y018063D01*
X022510Y018026D01*
X022483Y017992D01*
X022454Y017959D01*
X022421Y017930D01*
X022387Y017903D01*
X022350Y017880D01*
X022311Y017860D01*
X022271Y017843D01*
X022229Y017830D01*
X022187Y017821D01*
X022144Y017815D01*
X022100Y017813D01*
X022056Y017815D01*
X022013Y017821D01*
X021971Y017830D01*
X021929Y017843D01*
X021889Y017860D01*
X021850Y017880D01*
X021813Y017903D01*
X021779Y017930D01*
X021746Y017959D01*
X021717Y017992D01*
X021690Y018026D01*
X021667Y018063D01*
X021647Y018102D01*
X021630Y018142D01*
X021617Y018184D01*
X021608Y018226D01*
X021602Y018269D01*
X021600Y018313D01*
X026100Y017350D02*
X026100Y016850D01*
X030100Y016850D02*
X030100Y017350D01*
X035661Y025370D02*
X037374Y025370D01*
X037374Y029948D01*
X035661Y029948D01*
X035661Y025370D01*
X014447Y022006D02*
X014447Y020006D01*
X014147Y020006D01*
X014147Y019906D01*
X014147Y020006D02*
X013847Y020006D01*
X013847Y022006D01*
X014147Y022006D01*
X014147Y022106D01*
X014147Y022006D02*
X014447Y022006D01*
X012931Y022006D02*
X012931Y020006D01*
X012631Y020006D01*
X012631Y019906D01*
X012631Y020006D02*
X012331Y020006D01*
X012331Y022006D01*
X012631Y022006D01*
X012631Y022106D01*
X012631Y022006D02*
X012931Y022006D01*
X011416Y022006D02*
X011416Y020006D01*
X011116Y020006D01*
X011116Y019906D01*
X011116Y020006D02*
X010816Y020006D01*
X010816Y022006D01*
X011116Y022006D01*
X011116Y022106D01*
X011116Y022006D02*
X011416Y022006D01*
X009900Y022006D02*
X009900Y020006D01*
X009600Y020006D01*
X009600Y019906D01*
X009600Y020006D02*
X009300Y020006D01*
X009300Y022006D01*
X009600Y022006D01*
X009600Y022106D01*
X009600Y022006D02*
X009900Y022006D01*
X008384Y022006D02*
X008384Y020006D01*
X008084Y020006D01*
X008084Y019906D01*
X008084Y020006D02*
X007784Y020006D01*
X007784Y022006D01*
X008084Y022006D01*
X008084Y022106D01*
X008084Y022006D02*
X008384Y022006D01*
X006869Y022006D02*
X006869Y020006D01*
X006569Y020006D01*
X006569Y019906D01*
X006569Y020006D02*
X006269Y020006D01*
X006269Y022006D01*
X006569Y022006D01*
X006569Y022106D01*
X006569Y022006D02*
X006869Y022006D01*
X005353Y022006D02*
X005353Y020006D01*
X005053Y020006D01*
X005053Y019906D01*
X005053Y020006D02*
X004753Y020006D01*
X004753Y022006D01*
X005053Y022006D01*
X005053Y022106D01*
X005053Y022006D02*
X005353Y022006D01*
D13*
X009073Y014941D02*
X009303Y014941D01*
X009380Y014864D01*
X009380Y014557D01*
X009303Y014480D01*
X009073Y014480D01*
X009073Y014941D01*
X009533Y014787D02*
X009687Y014941D01*
X009687Y014480D01*
X009840Y014480D02*
X009533Y014480D01*
X018420Y018333D02*
X018420Y018563D01*
X018496Y018640D01*
X018650Y018640D01*
X018727Y018563D01*
X018727Y018333D01*
X018880Y018333D02*
X018420Y018333D01*
X018727Y018486D02*
X018880Y018640D01*
X018650Y018793D02*
X018650Y019100D01*
X018880Y019023D02*
X018420Y019023D01*
X018650Y018793D01*
X020920Y018870D02*
X020920Y019023D01*
X020996Y019100D01*
X021073Y019100D01*
X021150Y019023D01*
X021227Y019100D01*
X021303Y019100D01*
X021380Y019023D01*
X021380Y018870D01*
X021303Y018793D01*
X021380Y018640D02*
X021227Y018486D01*
X021227Y018563D02*
X021227Y018333D01*
X021380Y018333D02*
X020920Y018333D01*
X020920Y018563D01*
X020996Y018640D01*
X021150Y018640D01*
X021227Y018563D01*
X020996Y018793D02*
X020920Y018870D01*
X021150Y018946D02*
X021150Y019023D01*
X028846Y022775D02*
X028846Y022929D01*
X028923Y023006D01*
X029230Y023006D01*
X029307Y022929D01*
X029307Y022775D01*
X029230Y022699D01*
X028923Y022699D01*
X028846Y022775D01*
X029153Y022852D02*
X029307Y023006D01*
X029307Y023159D02*
X029307Y023466D01*
X029307Y023313D02*
X028846Y023313D01*
X029000Y023159D01*
X029553Y022813D02*
X030301Y022813D01*
X030301Y024545D02*
X029553Y024545D01*
X033870Y021954D02*
X033870Y021720D01*
X033870Y021895D02*
X034104Y021895D01*
X034104Y021954D02*
X034104Y021720D01*
X034229Y021720D02*
X034463Y021720D01*
X034346Y021720D02*
X034346Y022070D01*
X034229Y021954D01*
X034104Y021954D02*
X033987Y022070D01*
X033870Y021954D01*
X034588Y021895D02*
X034705Y021954D01*
X034763Y021954D01*
X034822Y021895D01*
X034822Y021778D01*
X034763Y021720D01*
X034647Y021720D01*
X034588Y021778D01*
X034588Y021895D02*
X034588Y022070D01*
X034822Y022070D01*
X035006Y021778D02*
X035006Y021720D01*
X035064Y021720D01*
X035064Y021778D01*
X035006Y021778D01*
X035064Y021720D02*
X034947Y021603D01*
X035187Y021720D02*
X035420Y021954D01*
X035420Y022012D01*
X035362Y022070D01*
X035245Y022070D01*
X035187Y022012D01*
X035187Y021720D02*
X035420Y021720D01*
X035546Y021720D02*
X035546Y021954D01*
X035604Y021954D01*
X035663Y021895D01*
X035721Y021954D01*
X035779Y021895D01*
X035779Y021720D01*
X035663Y021720D02*
X035663Y021895D01*
X035905Y021954D02*
X035905Y021720D01*
X036022Y021720D02*
X036022Y021895D01*
X036080Y021954D01*
X036138Y021895D01*
X036138Y021720D01*
X036022Y021895D02*
X035963Y021954D01*
X035905Y021954D01*
X033694Y010580D02*
X033694Y010120D01*
X033541Y010120D02*
X033848Y010120D01*
X033541Y010427D02*
X033694Y010580D01*
X033387Y010504D02*
X033311Y010580D01*
X033157Y010580D01*
X033080Y010504D01*
X033080Y010427D01*
X033157Y010350D01*
X033311Y010350D01*
X033387Y010273D01*
X033387Y010197D01*
X033311Y010120D01*
X033157Y010120D01*
X033080Y010197D01*
X032927Y010197D02*
X032850Y010120D01*
X032697Y010120D01*
X032620Y010197D01*
X032620Y010580D01*
X032927Y010580D02*
X032927Y010197D01*
X033234Y010043D02*
X033234Y010657D01*
D14*
X033600Y009600D02*
X032100Y009600D01*
X033600Y009600D02*
X033600Y009100D01*
X029850Y007600D02*
X029852Y007670D01*
X029858Y007740D01*
X029868Y007809D01*
X029881Y007878D01*
X029899Y007946D01*
X029920Y008013D01*
X029945Y008078D01*
X029974Y008142D01*
X030006Y008205D01*
X030042Y008265D01*
X030081Y008323D01*
X030123Y008379D01*
X030168Y008433D01*
X030216Y008484D01*
X030267Y008532D01*
X030321Y008577D01*
X030377Y008619D01*
X030435Y008658D01*
X030495Y008694D01*
X030558Y008726D01*
X030622Y008755D01*
X030687Y008780D01*
X030754Y008801D01*
X030822Y008819D01*
X030891Y008832D01*
X030960Y008842D01*
X031030Y008848D01*
X031100Y008850D01*
X031170Y008848D01*
X031240Y008842D01*
X031309Y008832D01*
X031378Y008819D01*
X031446Y008801D01*
X031513Y008780D01*
X031578Y008755D01*
X031642Y008726D01*
X031705Y008694D01*
X031765Y008658D01*
X031823Y008619D01*
X031879Y008577D01*
X031933Y008532D01*
X031984Y008484D01*
X032032Y008433D01*
X032077Y008379D01*
X032119Y008323D01*
X032158Y008265D01*
X032194Y008205D01*
X032226Y008142D01*
X032255Y008078D01*
X032280Y008013D01*
X032301Y007946D01*
X032319Y007878D01*
X032332Y007809D01*
X032342Y007740D01*
X032348Y007670D01*
X032350Y007600D01*
X032348Y007530D01*
X032342Y007460D01*
X032332Y007391D01*
X032319Y007322D01*
X032301Y007254D01*
X032280Y007187D01*
X032255Y007122D01*
X032226Y007058D01*
X032194Y006995D01*
X032158Y006935D01*
X032119Y006877D01*
X032077Y006821D01*
X032032Y006767D01*
X031984Y006716D01*
X031933Y006668D01*
X031879Y006623D01*
X031823Y006581D01*
X031765Y006542D01*
X031705Y006506D01*
X031642Y006474D01*
X031578Y006445D01*
X031513Y006420D01*
X031446Y006399D01*
X031378Y006381D01*
X031309Y006368D01*
X031240Y006358D01*
X031170Y006352D01*
X031100Y006350D01*
X031030Y006352D01*
X030960Y006358D01*
X030891Y006368D01*
X030822Y006381D01*
X030754Y006399D01*
X030687Y006420D01*
X030622Y006445D01*
X030558Y006474D01*
X030495Y006506D01*
X030435Y006542D01*
X030377Y006581D01*
X030321Y006623D01*
X030267Y006668D01*
X030216Y006716D01*
X030168Y006767D01*
X030123Y006821D01*
X030081Y006877D01*
X030042Y006935D01*
X030006Y006995D01*
X029974Y007058D01*
X029945Y007122D01*
X029920Y007187D01*
X029899Y007254D01*
X029881Y007322D01*
X029868Y007391D01*
X029858Y007460D01*
X029852Y007530D01*
X029850Y007600D01*
X028600Y008100D02*
X028600Y007100D01*
X028600Y006100D02*
X028600Y005600D01*
X030100Y005600D01*
X032100Y005600D02*
X033600Y005600D01*
X033600Y006100D01*
X030100Y009600D02*
X028600Y009600D01*
X028600Y009100D01*
X022431Y010120D02*
X022431Y005080D01*
X006612Y005080D01*
X006612Y010120D01*
X022431Y010120D01*
X013303Y014585D02*
X013053Y014960D01*
X012803Y014585D01*
X013303Y014585D01*
X013292Y014602D02*
X012814Y014602D01*
X012846Y014650D02*
X013260Y014650D01*
X013227Y014699D02*
X012878Y014699D01*
X012911Y014747D02*
X013195Y014747D01*
X013163Y014796D02*
X012943Y014796D01*
X012975Y014844D02*
X013130Y014844D01*
X013098Y014893D02*
X013008Y014893D01*
X013040Y014941D02*
X013066Y014941D01*
X022490Y019491D02*
X022490Y019641D01*
X022490Y019566D02*
X022941Y019566D01*
X022941Y019491D02*
X022941Y019641D01*
X022866Y019798D02*
X022565Y019798D01*
X022490Y019873D01*
X022490Y020023D01*
X022565Y020098D01*
X022640Y020258D02*
X022490Y020408D01*
X022941Y020408D01*
X022941Y020258D02*
X022941Y020558D01*
X022866Y020098D02*
X022941Y020023D01*
X022941Y019873D01*
X022866Y019798D01*
X018033Y027617D02*
X017732Y027617D01*
X017882Y027617D02*
X017882Y028067D01*
X017732Y027917D01*
X017572Y027992D02*
X017572Y027842D01*
X017497Y027767D01*
X017272Y027767D01*
X017272Y027617D02*
X017272Y028067D01*
X017497Y028067D01*
X017572Y027992D01*
X017112Y028067D02*
X016962Y028067D01*
X017037Y028067D02*
X017037Y027692D01*
X016962Y027617D01*
X016887Y027617D01*
X016812Y027692D01*
D15*
X013617Y020258D02*
X013642Y020233D01*
X013642Y020183D01*
X013617Y020158D01*
X013567Y020158D02*
X013542Y020208D01*
X013542Y020233D01*
X013567Y020258D01*
X013617Y020258D01*
X013567Y020158D02*
X013492Y020158D01*
X013492Y020258D01*
X013517Y020111D02*
X013567Y020111D01*
X013592Y020086D01*
X013592Y020011D01*
X013592Y020061D02*
X013642Y020111D01*
X013642Y020011D02*
X013492Y020011D01*
X013492Y020086D01*
X013517Y020111D01*
X012126Y020111D02*
X012076Y020061D01*
X012076Y020086D02*
X012076Y020011D01*
X012126Y020011D02*
X011976Y020011D01*
X011976Y020086D01*
X012001Y020111D01*
X012051Y020111D01*
X012076Y020086D01*
X012026Y020158D02*
X011976Y020208D01*
X012126Y020208D01*
X012126Y020158D02*
X012126Y020258D01*
X010611Y020258D02*
X010611Y020158D01*
X010511Y020258D01*
X010486Y020258D01*
X010461Y020233D01*
X010461Y020183D01*
X010486Y020158D01*
X010486Y020111D02*
X010536Y020111D01*
X010561Y020086D01*
X010561Y020011D01*
X010561Y020061D02*
X010611Y020111D01*
X010611Y020011D02*
X010461Y020011D01*
X010461Y020086D01*
X010486Y020111D01*
X009095Y020111D02*
X009045Y020061D01*
X009045Y020086D02*
X009045Y020011D01*
X009095Y020011D02*
X008945Y020011D01*
X008945Y020086D01*
X008970Y020111D01*
X009020Y020111D01*
X009045Y020086D01*
X009070Y020158D02*
X009095Y020183D01*
X009095Y020233D01*
X009070Y020258D01*
X008970Y020258D01*
X008945Y020233D01*
X008945Y020183D01*
X008970Y020158D01*
X008995Y020158D01*
X009020Y020183D01*
X009020Y020258D01*
X007579Y020233D02*
X007579Y020183D01*
X007554Y020158D01*
X007529Y020158D01*
X007504Y020183D01*
X007504Y020233D01*
X007529Y020258D01*
X007554Y020258D01*
X007579Y020233D01*
X007504Y020233D02*
X007479Y020258D01*
X007454Y020258D01*
X007429Y020233D01*
X007429Y020183D01*
X007454Y020158D01*
X007479Y020158D01*
X007504Y020183D01*
X007504Y020111D02*
X007529Y020086D01*
X007529Y020011D01*
X007529Y020061D02*
X007579Y020111D01*
X007504Y020111D02*
X007454Y020111D01*
X007429Y020086D01*
X007429Y020011D01*
X007579Y020011D01*
X006064Y020011D02*
X005913Y020011D01*
X005913Y020086D01*
X005938Y020111D01*
X005988Y020111D01*
X006013Y020086D01*
X006013Y020011D01*
X006013Y020061D02*
X006064Y020111D01*
X006038Y020158D02*
X006064Y020183D01*
X006064Y020233D01*
X006038Y020258D01*
X006013Y020258D01*
X005988Y020233D01*
X005988Y020158D01*
X006038Y020158D01*
X005988Y020158D02*
X005938Y020208D01*
X005913Y020258D01*
X004548Y020158D02*
X004523Y020158D01*
X004423Y020258D01*
X004398Y020258D01*
X004398Y020158D01*
X004423Y020111D02*
X004473Y020111D01*
X004498Y020086D01*
X004498Y020011D01*
X004498Y020061D02*
X004548Y020111D01*
X004548Y020011D02*
X004398Y020011D01*
X004398Y020086D01*
X004423Y020111D01*
X006652Y010411D02*
X006652Y010261D01*
X006752Y010261D01*
X006800Y010261D02*
X006900Y010261D01*
X006947Y010261D02*
X007022Y010261D01*
X007047Y010286D01*
X007047Y010386D01*
X007022Y010411D01*
X006947Y010411D01*
X006947Y010261D01*
X006850Y010336D02*
X006800Y010336D01*
X006800Y010411D02*
X006800Y010261D01*
X006800Y010411D02*
X006900Y010411D01*
X007094Y010361D02*
X007144Y010411D01*
X007144Y010261D01*
X007094Y010261D02*
X007194Y010261D01*
X022132Y016102D02*
X022132Y016253D01*
X022207Y016253D01*
X022232Y016228D01*
X022232Y016178D01*
X022207Y016153D01*
X022132Y016153D01*
X022182Y016153D02*
X022232Y016102D01*
X022279Y016102D02*
X022379Y016102D01*
X022329Y016102D02*
X022329Y016253D01*
X022279Y016203D01*
X022426Y016228D02*
X022426Y016128D01*
X022526Y016228D01*
X022526Y016128D01*
X022501Y016102D01*
X022451Y016102D01*
X022426Y016128D01*
X022426Y016228D02*
X022451Y016253D01*
X022501Y016253D01*
X022526Y016228D01*
X025805Y017630D02*
X025830Y017605D01*
X025880Y017605D01*
X025905Y017630D01*
X025952Y017605D02*
X026052Y017705D01*
X026052Y017730D01*
X026027Y017755D01*
X025977Y017755D01*
X025952Y017730D01*
X025905Y017730D02*
X025880Y017755D01*
X025830Y017755D01*
X025805Y017730D01*
X025805Y017630D01*
X025952Y017605D02*
X026052Y017605D01*
X029805Y017630D02*
X029830Y017605D01*
X029880Y017605D01*
X029905Y017630D01*
X029952Y017605D02*
X030052Y017605D01*
X030002Y017605D02*
X030002Y017755D01*
X029952Y017705D01*
X029905Y017730D02*
X029880Y017755D01*
X029830Y017755D01*
X029805Y017730D01*
X029805Y017630D01*
D16*
X033550Y018100D02*
X033550Y023000D01*
X033900Y023000D01*
X033900Y023600D01*
X033550Y023600D01*
X033550Y024350D01*
X037650Y024350D01*
X037650Y023600D01*
X037300Y023600D01*
X037300Y023000D01*
X037650Y023000D01*
X037650Y018100D01*
X033550Y018100D01*
X034890Y023000D02*
X034892Y023053D01*
X034898Y023106D01*
X034908Y023158D01*
X034922Y023209D01*
X034939Y023259D01*
X034960Y023308D01*
X034985Y023355D01*
X035013Y023400D01*
X035045Y023443D01*
X035080Y023483D01*
X035117Y023520D01*
X035157Y023555D01*
X035200Y023587D01*
X035245Y023615D01*
X035292Y023640D01*
X035341Y023661D01*
X035391Y023678D01*
X035442Y023692D01*
X035494Y023702D01*
X035547Y023708D01*
X035600Y023710D01*
X035653Y023708D01*
X035706Y023702D01*
X035758Y023692D01*
X035809Y023678D01*
X035859Y023661D01*
X035908Y023640D01*
X035955Y023615D01*
X036000Y023587D01*
X036043Y023555D01*
X036083Y023520D01*
X036120Y023483D01*
X036155Y023443D01*
X036187Y023400D01*
X036215Y023355D01*
X036240Y023308D01*
X036261Y023259D01*
X036278Y023209D01*
X036292Y023158D01*
X036302Y023106D01*
X036308Y023053D01*
X036310Y023000D01*
X036308Y022947D01*
X036302Y022894D01*
X036292Y022842D01*
X036278Y022791D01*
X036261Y022741D01*
X036240Y022692D01*
X036215Y022645D01*
X036187Y022600D01*
X036155Y022557D01*
X036120Y022517D01*
X036083Y022480D01*
X036043Y022445D01*
X036000Y022413D01*
X035955Y022385D01*
X035908Y022360D01*
X035859Y022339D01*
X035809Y022322D01*
X035758Y022308D01*
X035706Y022298D01*
X035653Y022292D01*
X035600Y022290D01*
X035547Y022292D01*
X035494Y022298D01*
X035442Y022308D01*
X035391Y022322D01*
X035341Y022339D01*
X035292Y022360D01*
X035245Y022385D01*
X035200Y022413D01*
X035157Y022445D01*
X035117Y022480D01*
X035080Y022517D01*
X035045Y022557D01*
X035013Y022600D01*
X034985Y022645D01*
X034960Y022692D01*
X034939Y022741D01*
X034922Y022791D01*
X034908Y022842D01*
X034898Y022894D01*
X034892Y022947D01*
X034890Y023000D01*
X034447Y026500D02*
X034447Y028700D01*
X019847Y028700D01*
X019847Y027850D01*
X019877Y027848D01*
X019907Y027843D01*
X019936Y027834D01*
X019963Y027821D01*
X019989Y027806D01*
X020013Y027787D01*
X020034Y027766D01*
X020053Y027742D01*
X020068Y027716D01*
X020081Y027689D01*
X020090Y027660D01*
X020095Y027630D01*
X020097Y027600D01*
X020095Y027570D01*
X020090Y027540D01*
X020081Y027511D01*
X020068Y027484D01*
X020053Y027458D01*
X020034Y027434D01*
X020013Y027413D01*
X019989Y027394D01*
X019963Y027379D01*
X019936Y027366D01*
X019907Y027357D01*
X019877Y027352D01*
X019847Y027350D01*
X019847Y026500D01*
X034447Y026500D01*
X018817Y026622D02*
X018567Y026372D01*
X018067Y026372D01*
X017817Y026622D01*
X017567Y026372D01*
X017067Y026372D01*
X016817Y026622D01*
X016817Y027122D01*
X017067Y027372D01*
X017567Y027372D01*
X017817Y027122D01*
X018067Y027372D01*
X018567Y027372D01*
X018817Y027122D01*
X018817Y026622D01*
X017817Y026622D02*
X017817Y027122D01*
D17*
X033800Y021600D02*
X033800Y018350D01*
X037400Y018350D01*
X037400Y021600D01*
X033800Y021600D01*
D18*
X034135Y021266D02*
X034345Y021266D01*
X034240Y021266D02*
X034240Y020635D01*
X034135Y020635D02*
X034345Y020635D01*
X034565Y020740D02*
X034670Y020635D01*
X034880Y020635D01*
X034985Y020740D01*
X035209Y020635D02*
X035630Y021055D01*
X035630Y021160D01*
X035525Y021266D01*
X035314Y021266D01*
X035209Y021160D01*
X034985Y021160D02*
X034880Y021266D01*
X034670Y021266D01*
X034565Y021160D01*
X034565Y020740D01*
X035209Y020635D02*
X035630Y020635D01*
X035697Y030694D02*
X036117Y031114D01*
X036117Y031220D01*
X036012Y031325D01*
X035802Y031325D01*
X035697Y031220D01*
X035473Y031220D02*
X035368Y031325D01*
X035157Y031325D01*
X035052Y031220D01*
X035052Y031114D01*
X035157Y031009D01*
X035368Y031009D01*
X035473Y030904D01*
X035473Y030799D01*
X035368Y030694D01*
X035157Y030694D01*
X035052Y030799D01*
X035697Y030694D02*
X036117Y030694D01*
X019552Y028025D02*
X019552Y027814D01*
X019447Y027709D01*
X019447Y027485D02*
X019552Y027380D01*
X019552Y027170D01*
X019447Y027065D01*
X019027Y027065D01*
X018922Y027170D01*
X018922Y027380D01*
X019027Y027485D01*
X019027Y027709D02*
X018922Y027814D01*
X018922Y028025D01*
X019027Y028130D01*
X019132Y028130D01*
X019237Y028025D01*
X019342Y028130D01*
X019447Y028130D01*
X019552Y028025D01*
X019237Y028025D02*
X019237Y027919D01*
X019552Y026845D02*
X019552Y026635D01*
X019552Y026740D02*
X018922Y026740D01*
X018922Y026635D02*
X018922Y026845D01*
X003757Y011266D02*
X003757Y010635D01*
X003547Y010635D02*
X003968Y010635D01*
X003547Y011055D02*
X003757Y011266D01*
X003323Y011160D02*
X003218Y011266D01*
X003008Y011266D01*
X002903Y011160D01*
X002903Y011055D01*
X003008Y010950D01*
X003218Y010950D01*
X003323Y010845D01*
X003323Y010740D01*
X003218Y010635D01*
X003008Y010635D01*
X002903Y010740D01*
D19*
X034600Y017925D03*
X035600Y017925D03*
X036600Y017925D03*
D20*
X031116Y019466D02*
X031116Y021766D01*
X023116Y021766D01*
X023116Y021016D01*
X023155Y021014D01*
X023194Y021008D01*
X023232Y020999D01*
X023269Y020986D01*
X023305Y020969D01*
X023338Y020949D01*
X023370Y020925D01*
X023399Y020899D01*
X023425Y020870D01*
X023449Y020838D01*
X023469Y020805D01*
X023486Y020769D01*
X023499Y020732D01*
X023508Y020694D01*
X023514Y020655D01*
X023516Y020616D01*
X023514Y020577D01*
X023508Y020538D01*
X023499Y020500D01*
X023486Y020463D01*
X023469Y020427D01*
X023449Y020394D01*
X023425Y020362D01*
X023399Y020333D01*
X023370Y020307D01*
X023338Y020283D01*
X023305Y020263D01*
X023269Y020246D01*
X023232Y020233D01*
X023194Y020224D01*
X023155Y020218D01*
X023116Y020216D01*
X023116Y019466D01*
X031116Y019466D01*
M02*
